<?xml version="1.0" encoding="iso-8859-1"?>
<!-- Uploaded to: SVG Repo, www.svgrepo.com, Generator: SVG Repo Mixer Tools -->
<svg height="800px" width="800px" version="1.1" id="Layer_1" xmlns="http://www.w3.org/2000/svg" xmlns:xlink="http://www.w3.org/1999/xlink" 
	 viewBox="0 0 512 512" xml:space="preserve">
<polygon style="fill:#FF8C78;" points="363.385,354.781 294.668,389.139 294.668,500.804 346.205,500.804 346.205,440.676 
	380.564,440.676 380.564,500.804 432.101,500.804 432.101,389.139 "/>
<polygon style="fill:#DF7A6E;" points="294.668,389.139 294.668,500.804 320.794,500.804 320.794,376.075 "/>
<path style="fill:#FFD791;" d="M221.656,123.935h-61.201c-1.776,0-3.221-1.445-3.221-3.221V83.135c0-1.776,1.445-3.221,3.221-3.221
	h77.306c7.115,0,12.884-5.769,12.884-12.884s-5.769-12.884-12.884-12.884h-33.285V24.081c0-7.116-5.769-12.884-12.884-12.884
	s-12.884,5.768-12.884,12.884v30.064h-18.253c-15.985,0-28.99,13.005-28.99,28.99v37.579c0,15.985,13.005,28.99,28.99,28.99h61.201
	c1.776,0,3.221,1.445,3.221,3.221v42.948c0,1.776-1.445,3.221-3.221,3.221H144.35c-7.115,0-12.884,5.769-12.884,12.884
	c0,7.115,5.769,12.884,12.884,12.884h34.358V256c0,7.116,5.769,12.884,12.884,12.884s12.884-5.768,12.884-12.884v-31.137h17.179
	c15.985,0,28.99-13.005,28.99-28.99v-42.948C250.646,136.94,237.64,123.935,221.656,123.935z"/>
<path style="fill:#ffffff;" d="M463.599,246.8c-6.716-96.149-77.326-174.956-169.539-194.15l-10.129,30.829
	c79.317,14.849,140.621,81.468,147.366,163.319h-47.689l60.738,60.738l60.738-60.738h-41.485V246.8z"/>
<path style="fill:#ffffff;" d="M463.599,246.8c-2.128-30.467-10.679-59.188-24.292-84.828l-28.308,15.358
	c11.131,21.061,18.245,44.556,20.298,69.469h-47.689l60.738,60.738l60.738-60.738L463.599,246.8L463.599,246.8z"/>
<path style="fill:#ffffff;" d="M49.504,268.422c6.716,96.149,77.326,174.956,169.539,194.15l10.129-30.829
	c-79.318-14.85-140.622-81.469-147.367-163.32h47.689l-60.738-60.738L8.019,268.422H49.504z"/>
<path style="fill:#ffffff;" d="M229.172,431.741c-35.014-6.555-66.512-23.203-91.362-46.792l-20.322,25.078
	c27.963,25.93,62.855,44.488,101.555,52.543L229.172,431.741z"/>
<path d="M432.101,508.856h-51.538c-4.447,0-8.053-3.604-8.053-8.053v-52.074h-18.253v52.074c0,4.448-3.605,8.053-8.053,8.053
	h-51.538c-4.447,0-8.053-3.604-8.053-8.053V389.139c0-3.05,1.723-5.839,4.452-7.202l68.717-34.358c2.267-1.135,4.936-1.135,7.202,0
	l68.717,34.358c2.728,1.365,4.452,4.152,4.452,7.202v111.665C440.154,505.252,436.549,508.856,432.101,508.856z M388.617,492.751
	h35.432v-98.634l-60.664-30.332l-60.664,30.332v98.634h35.432v-52.074c0-4.448,3.605-8.053,8.053-8.053h34.358
	c4.447,0,8.053,3.604,8.053,8.053V492.751z"/>
<path d="M457.863,380.013c-1.302,0.001-2.624-0.317-3.848-0.985l-90.63-49.434l-90.63,49.434c-3.904,2.129-8.796,0.69-10.925-3.213
	c-2.13-3.905-0.691-8.796,3.214-10.926l94.486-51.538c2.403-1.311,5.308-1.311,7.712,0l94.486,51.538
	c3.904,2.129,5.344,7.021,3.214,10.926C463.477,378.495,460.714,380.013,457.863,380.013z"/>
<path d="M191.593,276.937c-11.544,0-20.937-9.393-20.937-20.937v-23.085H144.35c-11.544,0-20.937-9.393-20.937-20.937
	c0-11.544,9.393-20.937,20.937-20.937h72.475v-33.285h-56.369c-20.425,0-37.043-16.618-37.043-37.043V83.135
	c0-20.425,16.618-37.043,37.043-37.043h10.2V24.081c0-11.544,9.393-20.937,20.937-20.937s20.937,9.393,20.937,20.937v22.011h25.232
	c11.544,0,20.937,9.393,20.937,20.937s-9.393,20.937-20.937,20.937h-72.475v27.916h56.369c20.425,0,37.043,16.618,37.043,37.043
	v42.948c0,20.425-16.618,37.043-37.043,37.043h-9.126V256C212.53,267.545,203.137,276.937,191.593,276.937z M144.35,207.147
	c-2.664,0-4.832,2.168-4.832,4.832c0,2.664,2.168,4.832,4.832,4.832h34.358c4.447,0,8.053,3.604,8.053,8.053V256
	c0,2.664,2.168,4.832,4.832,4.832s4.832-2.168,4.832-4.832v-31.137c0-4.448,3.605-8.053,8.053-8.053h17.179
	c11.544,0,20.937-9.393,20.937-20.937v-42.948c0-11.544-9.393-20.937-20.937-20.937h-61.201c-6.217,0-11.274-5.057-11.274-11.274
	V83.135c0-6.217,5.057-11.274,11.274-11.274h77.306c2.664,0,4.832-2.168,4.832-4.832s-2.168-4.832-4.832-4.832h-33.285
	c-4.447,0-8.053-3.604-8.053-8.053V24.081c0-2.664-2.168-4.832-4.832-4.832s-4.832,2.168-4.832,4.832v30.064
	c0,4.448-3.605,8.053-8.053,8.053h-18.253c-11.544,0-20.937,9.393-20.937,20.937v37.579c0,11.544,9.393,20.937,20.937,20.937h61.201
	c6.217,0,11.274,5.057,11.274,11.274v42.948c0,6.217-5.057,11.274-11.274,11.274H144.35z"/>
<path d="M443.271,314.938c-2.136,0-4.184-0.848-5.694-2.358l-60.737-60.738c-4.968-4.969-1.326-13.748,5.694-13.748h38.722
	c-9.845-73.616-66.245-133.566-139.882-147.351c-4.709-0.88-7.667-5.867-6.168-10.429l10.13-30.829
	c1.279-3.894,5.282-6.203,9.291-5.371c32.573,6.779,63.773,21.187,90.229,41.664c3.517,2.722,4.162,7.779,1.44,11.296
	c-2.722,3.516-7.78,4.161-11.296,1.439c-22.631-17.515-48.997-30.241-76.649-37.043l-5.042,15.345
	c79.157,18.832,138.208,86.952,144.941,168.669c0.381,4.625-3.388,8.714-8.026,8.714h-28.248l41.297,41.298l41.297-41.298h-22.043
	c-4.229,0-7.739-3.273-8.033-7.492c-3.084-44.148-19.997-85.328-48.908-119.086c-2.893-3.378-2.5-8.462,0.878-11.354
	c3.378-2.894,8.461-2.5,11.354,0.877c29.537,34.489,47.462,76.165,52.094,120.949h34.1c7.02,0,10.663,8.777,5.694,13.748
	l-60.738,60.738C447.455,314.089,445.408,314.938,443.271,314.938z"/>
<path d="M219.018,470.625c-0.544,0-1.095-0.056-1.646-0.17c-17.943-3.735-35.402-9.72-51.891-17.786
	c-3.995-1.954-5.649-6.778-3.695-10.772c1.954-3.996,6.779-5.648,10.772-3.695c13.129,6.423,26.921,11.422,41.09,14.899
	l5.043-15.349c-79.16-18.833-138.209-86.954-144.943-168.67c-0.381-4.625,3.388-8.714,8.026-8.714h28.248l-41.297-41.298
	L27.43,260.368h22.043c4.229,0,7.739,3.273,8.033,7.492c4.067,58.228,33.042,112.243,79.496,148.197
	c3.517,2.722,4.162,7.779,1.44,11.296c-2.723,3.515-7.78,4.162-11.296,1.439c-48.085-37.214-78.798-92.392-85.052-152.319H7.99
	c-7.02,0-10.663-8.777-5.694-13.748l60.737-60.737c3.145-3.144,8.244-3.144,11.388,0l60.738,60.737
	c4.968,4.969,1.326,13.748-5.694,13.748H90.742c9.845,73.616,66.245,133.566,139.882,147.351c4.709,0.88,7.667,5.867,6.168,10.429
	l-10.13,30.83C225.559,468.442,222.431,470.625,219.018,470.625z"/>
</svg>